<svg xmlns="http://www.w3.org/2000/svg" viewBox="0 0 1891.85 500.35"><defs><style>.cls-1{fill:#5522fa;}</style></defs><g id="Layer_2" data-name="Layer 2"><g id="Layer_1-2" data-name="Layer 1"><path class="cls-1" d="M5.85,305.26C31,416.92,130.82,500.35,250.17,500.35s219.21-83.43,244.32-195.09c-64.52,40.38-150.25,65-244.32,65S70.38,345.64,5.85,305.26Z"/><path class="cls-1" d="M250.17,0C115.55,0,5.73,106.14,0,239.23a267.26,267.26,0,0,0,21.67,16.55c56.38,38.83,137,64.44,228.5,64.44s172.12-25.61,228.51-64.44a269,269,0,0,0,21.67-16.55C494.62,106.14,384.8,0,250.17,0Z"/><path class="cls-1" d="M836.86,117Q802.2,98.14,755.62,98.13q-46.22,0-80.87,19a135,135,0,0,0-54,53.85q-19.38,34.86-19.37,82.55,0,47.32,19.37,82.17a136.17,136.17,0,0,0,54,54q34.65,19.2,80.87,19.2,46.57,0,81-19a135,135,0,0,0,53.85-54q19.37-35,19.38-82.36,0-48.08-19.19-82.92A132.63,132.63,0,0,0,836.86,117ZM822.7,326.57q-23.87,27.21-67.08,27.2t-67.08-27.2q-23.85-27.19-23.85-73.42,0-45.83,23.85-72.85t67.08-27q43.59,0,67.26,27t23.67,73.23Q846.55,299.37,822.7,326.57Z"/><path class="cls-1" d="M1044.8,189.8q-19.38,11.56-28.32,35h-15.66v-44h-62.6V242h30.56V404.45h60.74V291.54q0-26.84,13.6-43.23t42.67-16.4h21.62V178.25h-19Q1064.18,178.25,1044.8,189.8Z"/><path class="cls-1" d="M1342.92,190.73q-22.73-14.34-55.15-14.34-24.6,0-42.11,9.13a68.42,68.42,0,0,0-27.58,25.9h-1.49v-120h-61.86V343.34h-30.56v61.11h62.61V367.93h15.65a83.53,83.53,0,0,0,31.86,30.19q19.93,10.8,48.26,10.81,34.67,0,58.51-14.54t36.15-40.8q12.3-26.28,12.3-60.93,0-35-11.93-61.31T1342.92,190.73Zm-29.44,147.76q-14.16,16.77-42.48,16.77-25,0-39.69-14t-14.72-38.57V282.59q0-24.58,14.72-38.57t39.69-14q28.32,0,42.48,16.77t14.17,45.84Q1327.65,321.71,1313.48,338.49Z"/><path class="cls-1" d="M1588.69,189.8q-25.15-13.41-60.19-13.41-35.77,0-62,14A97,97,0,0,0,1426,230.24q-14.16,25.9-14.16,61.67t14.54,62a100.25,100.25,0,0,0,41.36,40.62q26.84,14.35,63,14.35,44.34,0,73-20.31t36.15-56.09h-61.86q-4.85,13.8-16.4,20.5t-31.3,6.71q-25,0-40.25-13.05t-19-38h169.56V287.81q0-34.65-13.41-59.62A92,92,0,0,0,1588.69,189.8ZM1472.6,267.69q4.85-20.87,19.2-31.68t37.08-10.8q22.72,0,36.14,10.62t16.4,31.86Z"/><path class="cls-1" d="M1891.85,287.81q0-34.65-13.42-59.62a92,92,0,0,0-38.57-38.39q-25.15-13.41-60.18-13.41-35.78,0-62,14a97,97,0,0,0-40.44,39.88Q1663,256.15,1663,291.91t14.54,62a100.25,100.25,0,0,0,41.36,40.62q26.83,14.35,63,14.35,44.34,0,73-20.31t36.15-56.09h-61.86q-4.85,13.8-16.4,20.5t-31.3,6.71q-25,0-40.25-13.05t-19-38h169.56Zm-168.07-20.12q4.83-20.87,19.19-31.68t37.08-10.8q22.73,0,36.15,10.62t16.39,31.86Z"/></g></g></svg>